<?xml version="1.0" encoding="UTF-8"?>
<!DOCTYPE svg PUBLIC "-//W3C//DTD SVG 1.1//EN" "http://www.w3.org/Graphics/SVG/1.1/DTD/svg11.dtd">
<!-- Creator: CorelDRAW X6 -->
<svg xmlns="http://www.w3.org/2000/svg" xml:space="preserve" width="100%" height="100%" version="1.1" style="shape-rendering:geometricPrecision; text-rendering:geometricPrecision; image-rendering:optimizeQuality; fill-rule:evenodd; clip-rule:evenodd"
viewBox="0 0 500 500"
 xmlns:xlink="http://www.w3.org/1999/xlink">
 <defs>
  <style type="text/css">
   <![CDATA[
    .str0 {stroke:black;stroke-width:2}
    .str1 {stroke:#202020;stroke-width:2}
    .fil1 {fill:#303030}
    .fil9 {fill:#6FAE00}
    .fil7 {fill:#707070}
    .fil8 {fill:#D1ECFF}
    .fil10 {fill:#ED2F00}
    .fil5 {fill:url(#id0)}
    .fil4 {fill:url(#id1)}
    .fil3 {fill:url(#id2)}
    .fil0 {fill:url(#id3)}
    .fil12 {fill:url(#id4)}
    .fil11 {fill:url(#id5)}
    .fil2 {fill:url(#id6)}
    .fil6 {fill:url(#id7)}
   ]]>
  </style>
  <linearGradient id="id0" gradientUnits="userSpaceOnUse" x1="252.5" y1="425.001" x2="252.5" y2="464.999">
   <stop offset="0" style="stop-color:#2B2A29"/>
   <stop offset="1" style="stop-color:#404040"/>
  </linearGradient>
  <linearGradient id="id1" gradientUnits="userSpaceOnUse" x1="252.5" y1="430.3" x2="252.5" y2="459.7">
   <stop offset="0" style="stop-color:#282828"/>
   <stop offset="0.211765" style="stop-color:#404040"/>
   <stop offset="1" style="stop-color:#202020"/>
  </linearGradient>
  <linearGradient id="id2" gradientUnits="userSpaceOnUse" x1="120" y1="110.501" x2="120" y2="69.499">
   <stop offset="0" style="stop-color:#7D7D7D"/>
   <stop offset="0.219608" style="stop-color:#D8D8D8"/>
   <stop offset="0.541176" style="stop-color:#E5E5E5"/>
   <stop offset="0.729412" style="stop-color:#F2F2F2"/>
   <stop offset="0.839216" style="stop-color:#BEBEBE"/>
   <stop offset="1" style="stop-color:#8A8A8A"/>
  </linearGradient>
  <linearGradient id="id3" gradientUnits="userSpaceOnUse" x1="252.5" y1="98.201" x2="252.5" y2="401.799">
   <stop offset="0" style="stop-color:#B1B1B1"/>
   <stop offset="0.501961" style="stop-color:#707070"/>
   <stop offset="1" style="stop-color:#D8D8D8"/>
  </linearGradient>
  <linearGradient id="id4" gradientUnits="userSpaceOnUse" x1="221.289" y1="270.626" x2="332.911" y2="174.32">
   <stop offset="0" style="stop-color:#008EED"/>
   <stop offset="1" style="stop-color:#17A2FF"/>
  </linearGradient>
  <linearGradient id="id5" gradientUnits="userSpaceOnUse" x1="211.846" y1="276.166" x2="293.154" y2="203.835">
   <stop offset="0" style="stop-color:#0078C8"/>
   <stop offset="1" style="stop-color:#008EED"/>
  </linearGradient>
  <linearGradient id="id6" gradientUnits="userSpaceOnUse" x1="312.792" y1="192.781" x2="252.83" y2="224.525">
   <stop offset="0" style="stop-color:#303030"/>
   <stop offset="1" style="stop-color:#404040"/>
  </linearGradient>
  <radialGradient id="id7" gradientUnits="objectBoundingBox" cx="64.0019%" cy="39.9987%" r="29.9973%" fx="64.0019%" fy="39.9987%">
   <stop offset="0" style="stop-color:#606060"/>
   <stop offset="1" style="stop-color:#404040"/>
  </radialGradient>
 </defs>
 <g id="Layer_x0020_1">
  <metadata id="CorelCorpID_0Corel-Layer"/>
  <rect class="fil0" x="123" y="20" width="260" height="460" rx="30" ry="28"/>
  <rect class="fil1 str0" x="128" y="25" width="250" height="450" rx="25" ry="23"/>
  <path class="fil2" d="M188 25l165 0c13,0 25,11 25,25l0 342c-110,-86 -183,-218 -190,-367z"/>
  <path class="fil3" d="M123 65l0 50c-3,0 -5,-2 -5,-5l0 -40c0,-3 2,-5 5,-5z"/>
  <path class="fil4 str1" d="M142 430l70 0 0 30 -60 0c-5,0 -10,-4 -10,-10l0 -20zm221 0l-70 0 0 30 60 0c5,0 10,-4 10,-10l0 -20z"/>
  <circle class="fil5 str0" cx="253" cy="445" r="20"/>
  <circle class="fil6" cx="253" cy="445" r="10"/>
  <circle class="fil7" cx="227" cy="40" r="5"/>
  <circle class="fil7" cx="253" cy="40" r="5"/>
  <circle class="fil7" cx="278" cy="40" r="5"/>
  <circle class="fil8" cx="163" cy="45" r="7"/>
  <path class="fil9" d="M188 441c3,1 7,3 7,7 0,1 -1,3 -2,3 -2,0 -4,-1 -6,-2 0,0 -1,-3 -1,-4 -1,0 -2,-2 -3,-2 -2,-1 -9,-1 -11,0 -1,0 -2,2 -3,2 0,1 -1,4 -1,4 -2,1 -4,2 -6,2 -1,0 -2,-2 -2,-3 0,-4 4,-6 7,-7 7,-2 14,-2 21,0z"/>
  <path class="fil10" d="M338 441c3,1 7,3 7,7 0,1 -1,3 -2,3 -2,0 -4,-1 -6,-2 0,0 -1,-3 -1,-4 -1,0 -2,-2 -3,-2 -2,-1 -9,-1 -11,0 -1,0 -2,2 -3,2 0,1 -1,4 -1,4 -2,1 -4,2 -6,2 -1,0 -2,-2 -2,-3 0,-4 4,-6 7,-7 7,-2 14,-2 21,0zm-8 5l1 1c1,0 1,0 0,1l-1 1c-1,1 -1,1 0,1l1 2c1,0 1,0 0,0l-1 2c0,0 0,0 0,0l-2 -2c0,0 -1,0 -1,0l-2 2c0,0 0,0 0,0l-1 -2c-1,0 -1,0 0,0l1 -2c1,0 1,0 0,-1l-1 -1c-1,-1 -1,-1 0,-1l1 -1c0,0 0,0 0,0l2 2c0,0 1,0 1,0l2 -2c0,0 0,0 0,0z"/>
  <rect class="fil11" x="142" y="65" width="220" height="350"/>
  <path class="fil12" d="M192 65l171 0 0 315c-92,-78 -155,-189 -171,-315z"/>
 </g>
</svg>
